<mxfile host="app.diagrams.net" modified="2023-12-25T18:18:06.868Z" agent="Mozilla/5.0 (Windows NT 10.0; Win64; x64) AppleWebKit/537.36 (KHTML, like Gecko) Chrome/97.0.4692.99 Safari/537.36 OPR/83.0.4254.46" etag="-ihQegPf982vab33LOep" version="22.1.11" type="device">
  <diagram id="C5RBs43oDa-KdzZeNtuy" name="Page-1">
    <mxGraphModel dx="3710" dy="1651" grid="1" gridSize="10" guides="1" tooltips="1" connect="1" arrows="1" fold="1" page="1" pageScale="1" pageWidth="827" pageHeight="1169" math="0" shadow="0">
      <root>
        <mxCell id="WIyWlLk6GJQsqaUBKTNV-0" />
        <mxCell id="WIyWlLk6GJQsqaUBKTNV-1" parent="WIyWlLk6GJQsqaUBKTNV-0" />
        <mxCell id="f17wZOm8WCS2GQfg1A_k-0" value="EntityDAO" style="swimlane;fontStyle=3;align=center;verticalAlign=top;childLayout=stackLayout;horizontal=1;startSize=26;horizontalStack=0;resizeParent=1;resizeLast=0;collapsible=1;marginBottom=0;rounded=0;shadow=0;strokeWidth=1;" parent="WIyWlLk6GJQsqaUBKTNV-1" vertex="1">
          <mxGeometry x="640" y="435" width="340" height="260" as="geometry">
            <mxRectangle x="530" y="520" width="160" height="26" as="alternateBounds" />
          </mxGeometry>
        </mxCell>
        <mxCell id="f17wZOm8WCS2GQfg1A_k-1" value="#static dataDirectory: String" style="text;align=left;verticalAlign=top;spacingLeft=4;spacingRight=4;overflow=hidden;rotatable=0;points=[[0,0.5],[1,0.5]];portConstraint=eastwest;" parent="f17wZOm8WCS2GQfg1A_k-0" vertex="1">
          <mxGeometry y="26" width="340" height="26" as="geometry" />
        </mxCell>
        <mxCell id="f17wZOm8WCS2GQfg1A_k-4" value="" style="line;html=1;strokeWidth=1;align=left;verticalAlign=middle;spacingTop=-1;spacingLeft=3;spacingRight=3;rotatable=0;labelPosition=right;points=[];portConstraint=eastwest;" parent="f17wZOm8WCS2GQfg1A_k-0" vertex="1">
          <mxGeometry y="52" width="340" height="8" as="geometry" />
        </mxCell>
        <mxCell id="f17wZOm8WCS2GQfg1A_k-5" value="+abstract getData() : List&lt;Entity&gt;" style="text;align=left;verticalAlign=top;spacingLeft=4;spacingRight=4;overflow=hidden;rotatable=0;points=[[0,0.5],[1,0.5]];portConstraint=eastwest;fontStyle=2" parent="f17wZOm8WCS2GQfg1A_k-0" vertex="1">
          <mxGeometry y="60" width="340" height="26" as="geometry" />
        </mxCell>
        <mxCell id="f17wZOm8WCS2GQfg1A_k-6" value="+abstract saveData(entities: List&lt;Entity&gt;) : Unit" style="text;align=left;verticalAlign=top;spacingLeft=4;spacingRight=4;overflow=hidden;rotatable=0;points=[[0,0.5],[1,0.5]];portConstraint=eastwest;fontStyle=2" parent="f17wZOm8WCS2GQfg1A_k-0" vertex="1">
          <mxGeometry y="86" width="340" height="26" as="geometry" />
        </mxCell>
        <mxCell id="f17wZOm8WCS2GQfg1A_k-7" value="+add(entity : Entity) : Unit" style="text;align=left;verticalAlign=top;spacingLeft=4;spacingRight=4;overflow=hidden;rotatable=0;points=[[0,0.5],[1,0.5]];portConstraint=eastwest;" parent="f17wZOm8WCS2GQfg1A_k-0" vertex="1">
          <mxGeometry y="112" width="340" height="26" as="geometry" />
        </mxCell>
        <mxCell id="f17wZOm8WCS2GQfg1A_k-8" value="+find(entity : Enity) : Entity?" style="text;align=left;verticalAlign=top;spacingLeft=4;spacingRight=4;overflow=hidden;rotatable=0;points=[[0,0.5],[1,0.5]];portConstraint=eastwest;" parent="f17wZOm8WCS2GQfg1A_k-0" vertex="1">
          <mxGeometry y="138" width="340" height="26" as="geometry" />
        </mxCell>
        <mxCell id="f17wZOm8WCS2GQfg1A_k-9" value="+remove(entity : Entity) : Unit" style="text;align=left;verticalAlign=top;spacingLeft=4;spacingRight=4;overflow=hidden;rotatable=0;points=[[0,0.5],[1,0.5]];portConstraint=eastwest;" parent="f17wZOm8WCS2GQfg1A_k-0" vertex="1">
          <mxGeometry y="164" width="340" height="26" as="geometry" />
        </mxCell>
        <mxCell id="f17wZOm8WCS2GQfg1A_k-18" value="#getDataFromFile(filePath : String) : List&lt;Entity&gt;" style="text;align=left;verticalAlign=top;spacingLeft=4;spacingRight=4;overflow=hidden;rotatable=0;points=[[0,0.5],[1,0.5]];portConstraint=eastwest;fontStyle=0" parent="f17wZOm8WCS2GQfg1A_k-0" vertex="1">
          <mxGeometry y="190" width="340" height="26" as="geometry" />
        </mxCell>
        <mxCell id="f17wZOm8WCS2GQfg1A_k-19" value="#saveDataToFile(entities : List&lt;Entity&gt;, filePath : String) : Unit" style="text;align=left;verticalAlign=top;spacingLeft=4;spacingRight=4;overflow=hidden;rotatable=0;points=[[0,0.5],[1,0.5]];portConstraint=eastwest;fontStyle=0" parent="f17wZOm8WCS2GQfg1A_k-0" vertex="1">
          <mxGeometry y="216" width="340" height="24" as="geometry" />
        </mxCell>
        <mxCell id="f17wZOm8WCS2GQfg1A_k-52" style="edgeStyle=orthogonalEdgeStyle;rounded=0;orthogonalLoop=1;jettySize=auto;html=1;endArrow=none;endFill=0;endSize=24;exitX=0.75;exitY=0;exitDx=0;exitDy=0;" parent="WIyWlLk6GJQsqaUBKTNV-1" source="f17wZOm8WCS2GQfg1A_k-34" edge="1">
          <mxGeometry relative="1" as="geometry">
            <mxPoint x="810" y="760" as="targetPoint" />
            <Array as="points">
              <mxPoint x="355" y="840" />
              <mxPoint x="810" y="840" />
              <mxPoint x="810" y="760" />
            </Array>
            <mxPoint x="410" y="870" as="sourcePoint" />
          </mxGeometry>
        </mxCell>
        <mxCell id="f17wZOm8WCS2GQfg1A_k-34" value="MovieDAO" style="swimlane;fontStyle=1;align=center;verticalAlign=top;childLayout=stackLayout;horizontal=1;startSize=26;horizontalStack=0;resizeParent=1;resizeLast=0;collapsible=1;marginBottom=0;rounded=0;shadow=0;strokeWidth=1;" parent="WIyWlLk6GJQsqaUBKTNV-1" vertex="1">
          <mxGeometry x="100" y="960" width="340" height="120" as="geometry">
            <mxRectangle x="530" y="520" width="160" height="26" as="alternateBounds" />
          </mxGeometry>
        </mxCell>
        <mxCell id="f17wZOm8WCS2GQfg1A_k-35" value="-static moviesFilePath: String" style="text;align=left;verticalAlign=top;spacingLeft=4;spacingRight=4;overflow=hidden;rotatable=0;points=[[0,0.5],[1,0.5]];portConstraint=eastwest;" parent="f17wZOm8WCS2GQfg1A_k-34" vertex="1">
          <mxGeometry y="26" width="340" height="26" as="geometry" />
        </mxCell>
        <mxCell id="f17wZOm8WCS2GQfg1A_k-36" value="" style="line;html=1;strokeWidth=1;align=left;verticalAlign=middle;spacingTop=-1;spacingLeft=3;spacingRight=3;rotatable=0;labelPosition=right;points=[];portConstraint=eastwest;" parent="f17wZOm8WCS2GQfg1A_k-34" vertex="1">
          <mxGeometry y="52" width="340" height="8" as="geometry" />
        </mxCell>
        <mxCell id="f17wZOm8WCS2GQfg1A_k-37" value="+override getData() : List&lt;Movie&gt;" style="text;align=left;verticalAlign=top;spacingLeft=4;spacingRight=4;overflow=hidden;rotatable=0;points=[[0,0.5],[1,0.5]];portConstraint=eastwest;fontStyle=0" parent="f17wZOm8WCS2GQfg1A_k-34" vertex="1">
          <mxGeometry y="60" width="340" height="26" as="geometry" />
        </mxCell>
        <mxCell id="f17wZOm8WCS2GQfg1A_k-38" value="+override saveData(entities: List&lt;Entity&gt;) : Unit" style="text;align=left;verticalAlign=top;spacingLeft=4;spacingRight=4;overflow=hidden;rotatable=0;points=[[0,0.5],[1,0.5]];portConstraint=eastwest;fontStyle=0" parent="f17wZOm8WCS2GQfg1A_k-34" vertex="1">
          <mxGeometry y="86" width="340" height="26" as="geometry" />
        </mxCell>
        <mxCell id="f17wZOm8WCS2GQfg1A_k-51" style="edgeStyle=orthogonalEdgeStyle;rounded=0;orthogonalLoop=1;jettySize=auto;html=1;exitX=0.5;exitY=0;exitDx=0;exitDy=0;endArrow=block;endFill=0;targetPerimeterSpacing=8;endSize=22;" parent="WIyWlLk6GJQsqaUBKTNV-1" source="f17wZOm8WCS2GQfg1A_k-46" edge="1">
          <mxGeometry relative="1" as="geometry">
            <mxPoint x="810" y="690" as="targetPoint" />
            <Array as="points">
              <mxPoint x="1100" y="840" />
              <mxPoint x="810" y="840" />
            </Array>
          </mxGeometry>
        </mxCell>
        <mxCell id="f17wZOm8WCS2GQfg1A_k-46" value="MovieShowDAO" style="swimlane;fontStyle=1;align=center;verticalAlign=top;childLayout=stackLayout;horizontal=1;startSize=26;horizontalStack=0;resizeParent=1;resizeLast=0;collapsible=1;marginBottom=0;rounded=0;shadow=0;strokeWidth=1;" parent="WIyWlLk6GJQsqaUBKTNV-1" vertex="1">
          <mxGeometry x="920" y="1180" width="340" height="120" as="geometry">
            <mxRectangle x="530" y="520" width="160" height="26" as="alternateBounds" />
          </mxGeometry>
        </mxCell>
        <mxCell id="f17wZOm8WCS2GQfg1A_k-47" value="-static movieShowPath: String" style="text;align=left;verticalAlign=top;spacingLeft=4;spacingRight=4;overflow=hidden;rotatable=0;points=[[0,0.5],[1,0.5]];portConstraint=eastwest;" parent="f17wZOm8WCS2GQfg1A_k-46" vertex="1">
          <mxGeometry y="26" width="340" height="26" as="geometry" />
        </mxCell>
        <mxCell id="f17wZOm8WCS2GQfg1A_k-48" value="" style="line;html=1;strokeWidth=1;align=left;verticalAlign=middle;spacingTop=-1;spacingLeft=3;spacingRight=3;rotatable=0;labelPosition=right;points=[];portConstraint=eastwest;" parent="f17wZOm8WCS2GQfg1A_k-46" vertex="1">
          <mxGeometry y="52" width="340" height="8" as="geometry" />
        </mxCell>
        <mxCell id="f17wZOm8WCS2GQfg1A_k-49" value="+override getData() : List&lt;MovieShow&gt;" style="text;align=left;verticalAlign=top;spacingLeft=4;spacingRight=4;overflow=hidden;rotatable=0;points=[[0,0.5],[1,0.5]];portConstraint=eastwest;fontStyle=0" parent="f17wZOm8WCS2GQfg1A_k-46" vertex="1">
          <mxGeometry y="60" width="340" height="26" as="geometry" />
        </mxCell>
        <mxCell id="f17wZOm8WCS2GQfg1A_k-50" value="+override saveData(entities: List&lt;Entity&gt;) : Unit" style="text;align=left;verticalAlign=top;spacingLeft=4;spacingRight=4;overflow=hidden;rotatable=0;points=[[0,0.5],[1,0.5]];portConstraint=eastwest;fontStyle=0" parent="f17wZOm8WCS2GQfg1A_k-46" vertex="1">
          <mxGeometry y="86" width="340" height="26" as="geometry" />
        </mxCell>
        <mxCell id="f17wZOm8WCS2GQfg1A_k-54" value="&lt;b&gt;StartApp&lt;/b&gt;" style="swimlane;fontStyle=0;childLayout=stackLayout;horizontal=1;startSize=30;horizontalStack=0;resizeParent=1;resizeParentMax=0;resizeLast=0;collapsible=1;marginBottom=0;whiteSpace=wrap;html=1;" parent="WIyWlLk6GJQsqaUBKTNV-1" vertex="1">
          <mxGeometry x="-160" y="550" width="350" height="338" as="geometry" />
        </mxCell>
        <mxCell id="f17wZOm8WCS2GQfg1A_k-55" value="-static movieDAO : MovieDAO" style="text;strokeColor=none;fillColor=none;align=left;verticalAlign=middle;spacingLeft=4;spacingRight=4;overflow=hidden;points=[[0,0.5],[1,0.5]];portConstraint=eastwest;rotatable=0;whiteSpace=wrap;html=1;" parent="f17wZOm8WCS2GQfg1A_k-54" vertex="1">
          <mxGeometry y="30" width="350" height="30" as="geometry" />
        </mxCell>
        <mxCell id="f17wZOm8WCS2GQfg1A_k-61" value="-static movieShowDAO : MovieShowDAO" style="text;strokeColor=none;fillColor=none;align=left;verticalAlign=middle;spacingLeft=4;spacingRight=4;overflow=hidden;points=[[0,0.5],[1,0.5]];portConstraint=eastwest;rotatable=0;whiteSpace=wrap;html=1;" parent="f17wZOm8WCS2GQfg1A_k-54" vertex="1">
          <mxGeometry y="60" width="350" height="30" as="geometry" />
        </mxCell>
        <mxCell id="f17wZOm8WCS2GQfg1A_k-64" value="-static actionList : List&amp;lt;Action&amp;gt;" style="text;strokeColor=none;fillColor=none;align=left;verticalAlign=middle;spacingLeft=4;spacingRight=4;overflow=hidden;points=[[0,0.5],[1,0.5]];portConstraint=eastwest;rotatable=0;whiteSpace=wrap;html=1;" parent="f17wZOm8WCS2GQfg1A_k-54" vertex="1">
          <mxGeometry y="90" width="350" height="30" as="geometry" />
        </mxCell>
        <mxCell id="f17wZOm8WCS2GQfg1A_k-62" value="" style="line;html=1;strokeWidth=1;align=left;verticalAlign=middle;spacingTop=-1;spacingLeft=3;spacingRight=3;rotatable=0;labelPosition=right;points=[];portConstraint=eastwest;" parent="f17wZOm8WCS2GQfg1A_k-54" vertex="1">
          <mxGeometry y="120" width="350" height="8" as="geometry" />
        </mxCell>
        <mxCell id="f17wZOm8WCS2GQfg1A_k-57" value="-readEnter() : Unit" style="text;strokeColor=none;fillColor=none;align=left;verticalAlign=middle;spacingLeft=4;spacingRight=4;overflow=hidden;points=[[0,0.5],[1,0.5]];portConstraint=eastwest;rotatable=0;whiteSpace=wrap;html=1;" parent="f17wZOm8WCS2GQfg1A_k-54" vertex="1">
          <mxGeometry y="128" width="350" height="30" as="geometry" />
        </mxCell>
        <mxCell id="f17wZOm8WCS2GQfg1A_k-75" value="+run() : Unit" style="text;strokeColor=none;fillColor=none;align=left;verticalAlign=middle;spacingLeft=4;spacingRight=4;overflow=hidden;points=[[0,0.5],[1,0.5]];portConstraint=eastwest;rotatable=0;whiteSpace=wrap;html=1;" parent="f17wZOm8WCS2GQfg1A_k-54" vertex="1">
          <mxGeometry y="158" width="350" height="30" as="geometry" />
        </mxCell>
        <mxCell id="f17wZOm8WCS2GQfg1A_k-76" value="-processAction(actionNumber : Int) : Unit" style="text;strokeColor=none;fillColor=none;align=left;verticalAlign=middle;spacingLeft=4;spacingRight=4;overflow=hidden;points=[[0,0.5],[1,0.5]];portConstraint=eastwest;rotatable=0;whiteSpace=wrap;html=1;" parent="f17wZOm8WCS2GQfg1A_k-54" vertex="1">
          <mxGeometry y="188" width="350" height="30" as="geometry" />
        </mxCell>
        <mxCell id="f17wZOm8WCS2GQfg1A_k-79" value="-showPlaces&lt;span style=&quot;background-color: initial;&quot;&gt;() : Unit&lt;/span&gt;" style="text;strokeColor=none;fillColor=none;align=left;verticalAlign=middle;spacingLeft=4;spacingRight=4;overflow=hidden;points=[[0,0.5],[1,0.5]];portConstraint=eastwest;rotatable=0;whiteSpace=wrap;html=1;" parent="f17wZOm8WCS2GQfg1A_k-54" vertex="1">
          <mxGeometry y="218" width="350" height="30" as="geometry" />
        </mxCell>
        <mxCell id="f17wZOm8WCS2GQfg1A_k-80" value="-addNewMovie() : Unit" style="text;strokeColor=none;fillColor=none;align=left;verticalAlign=middle;spacingLeft=4;spacingRight=4;overflow=hidden;points=[[0,0.5],[1,0.5]];portConstraint=eastwest;rotatable=0;whiteSpace=wrap;html=1;" parent="f17wZOm8WCS2GQfg1A_k-54" vertex="1">
          <mxGeometry y="248" width="350" height="30" as="geometry" />
        </mxCell>
        <mxCell id="f17wZOm8WCS2GQfg1A_k-81" value="-removeMovie() : Unit" style="text;strokeColor=none;fillColor=none;align=left;verticalAlign=middle;spacingLeft=4;spacingRight=4;overflow=hidden;points=[[0,0.5],[1,0.5]];portConstraint=eastwest;rotatable=0;whiteSpace=wrap;html=1;" parent="f17wZOm8WCS2GQfg1A_k-54" vertex="1">
          <mxGeometry y="278" width="350" height="30" as="geometry" />
        </mxCell>
        <mxCell id="f17wZOm8WCS2GQfg1A_k-84" value="-exit() : Unit" style="text;strokeColor=none;fillColor=none;align=left;verticalAlign=middle;spacingLeft=4;spacingRight=4;overflow=hidden;points=[[0,0.5],[1,0.5]];portConstraint=eastwest;rotatable=0;whiteSpace=wrap;html=1;" parent="f17wZOm8WCS2GQfg1A_k-54" vertex="1">
          <mxGeometry y="308" width="350" height="30" as="geometry" />
        </mxCell>
        <mxCell id="f17wZOm8WCS2GQfg1A_k-60" style="edgeStyle=orthogonalEdgeStyle;rounded=0;orthogonalLoop=1;jettySize=auto;html=1;exitX=1;exitY=0.5;exitDx=0;exitDy=0;startArrow=diamondThin;startFill=1;startSize=30;endArrow=none;endFill=0;endSize=18;entryX=0.5;entryY=0;entryDx=0;entryDy=0;" parent="WIyWlLk6GJQsqaUBKTNV-1" source="f17wZOm8WCS2GQfg1A_k-64" target="f17wZOm8WCS2GQfg1A_k-34" edge="1">
          <mxGeometry relative="1" as="geometry">
            <Array as="points">
              <mxPoint x="270" y="655" />
            </Array>
          </mxGeometry>
        </mxCell>
        <mxCell id="f17wZOm8WCS2GQfg1A_k-63" style="edgeStyle=orthogonalEdgeStyle;rounded=0;orthogonalLoop=1;jettySize=auto;html=1;entryX=0.676;entryY=0;entryDx=0;entryDy=0;entryPerimeter=0;endArrow=none;endFill=0;endSize=25;startArrow=diamondThin;startFill=1;startSize=30;sourcePerimeterSpacing=16;exitX=1;exitY=0.5;exitDx=0;exitDy=0;" parent="WIyWlLk6GJQsqaUBKTNV-1" source="f17wZOm8WCS2GQfg1A_k-61" target="f17wZOm8WCS2GQfg1A_k-46" edge="1">
          <mxGeometry relative="1" as="geometry">
            <mxPoint x="360" y="620" as="sourcePoint" />
            <Array as="points">
              <mxPoint x="500" y="625" />
              <mxPoint x="500" y="790" />
              <mxPoint x="1160" y="790" />
            </Array>
          </mxGeometry>
        </mxCell>
        <mxCell id="f17wZOm8WCS2GQfg1A_k-65" value="&amp;lt;data class&amp;gt;&lt;br&gt;&lt;b&gt;Action&lt;/b&gt;" style="swimlane;fontStyle=0;childLayout=stackLayout;horizontal=1;startSize=40;horizontalStack=0;resizeParent=1;resizeParentMax=0;resizeLast=0;collapsible=1;marginBottom=0;whiteSpace=wrap;html=1;" parent="WIyWlLk6GJQsqaUBKTNV-1" vertex="1">
          <mxGeometry x="480" y="90" width="140" height="100" as="geometry" />
        </mxCell>
        <mxCell id="f17wZOm8WCS2GQfg1A_k-69" value="+actionName: String" style="text;strokeColor=none;fillColor=none;align=left;verticalAlign=middle;spacingLeft=4;spacingRight=4;overflow=hidden;points=[[0,0.5],[1,0.5]];portConstraint=eastwest;rotatable=0;whiteSpace=wrap;html=1;" parent="f17wZOm8WCS2GQfg1A_k-65" vertex="1">
          <mxGeometry y="40" width="140" height="30" as="geometry" />
        </mxCell>
        <mxCell id="f17wZOm8WCS2GQfg1A_k-66" value="+action: () -&amp;gt; Unit" style="text;strokeColor=none;fillColor=none;align=left;verticalAlign=middle;spacingLeft=4;spacingRight=4;overflow=hidden;points=[[0,0.5],[1,0.5]];portConstraint=eastwest;rotatable=0;whiteSpace=wrap;html=1;" parent="f17wZOm8WCS2GQfg1A_k-65" vertex="1">
          <mxGeometry y="70" width="140" height="30" as="geometry" />
        </mxCell>
        <mxCell id="f17wZOm8WCS2GQfg1A_k-71" style="edgeStyle=orthogonalEdgeStyle;rounded=0;orthogonalLoop=1;jettySize=auto;html=1;endArrow=none;endFill=0;endSize=17;startArrow=diamondThin;startFill=1;startSize=30;exitX=1;exitY=0.5;exitDx=0;exitDy=0;entryX=0.487;entryY=1.027;entryDx=0;entryDy=0;entryPerimeter=0;" parent="WIyWlLk6GJQsqaUBKTNV-1" edge="1" target="f17wZOm8WCS2GQfg1A_k-66" source="f17wZOm8WCS2GQfg1A_k-55">
          <mxGeometry relative="1" as="geometry">
            <mxPoint x="638" y="220" as="targetPoint" />
            <mxPoint x="210" y="460" as="sourcePoint" />
            <Array as="points">
              <mxPoint x="548" y="595" />
            </Array>
          </mxGeometry>
        </mxCell>
        <mxCell id="f17wZOm8WCS2GQfg1A_k-85" value="&lt;b&gt;&lt;i&gt;Entity&lt;/i&gt;&lt;/b&gt;" style="swimlane;fontStyle=0;childLayout=stackLayout;horizontal=1;startSize=30;horizontalStack=0;resizeParent=1;resizeParentMax=0;resizeLast=0;collapsible=1;marginBottom=0;whiteSpace=wrap;html=1;" parent="WIyWlLk6GJQsqaUBKTNV-1" vertex="1">
          <mxGeometry x="1270" y="474" width="460" height="90" as="geometry" />
        </mxCell>
        <mxCell id="f17wZOm8WCS2GQfg1A_k-86" value="+static inline &amp;lt;TEntity&amp;gt; fromCSV(csvString : String) : TEntity where TEntity : Entity" style="text;strokeColor=none;fillColor=none;align=left;verticalAlign=middle;spacingLeft=4;spacingRight=4;overflow=hidden;points=[[0,0.5],[1,0.5]];portConstraint=eastwest;rotatable=0;whiteSpace=wrap;html=1;" parent="f17wZOm8WCS2GQfg1A_k-85" vertex="1">
          <mxGeometry y="30" width="460" height="30" as="geometry" />
        </mxCell>
        <mxCell id="0LXpmrPCH1U7zpxkhlg8-17" style="edgeStyle=orthogonalEdgeStyle;rounded=0;orthogonalLoop=1;jettySize=auto;html=1;exitX=0;exitY=0.5;exitDx=0;exitDy=0;" edge="1" parent="f17wZOm8WCS2GQfg1A_k-85" source="f17wZOm8WCS2GQfg1A_k-87">
          <mxGeometry relative="1" as="geometry">
            <mxPoint x="-0.5" y="75.5" as="targetPoint" />
          </mxGeometry>
        </mxCell>
        <mxCell id="f17wZOm8WCS2GQfg1A_k-87" value="&lt;i&gt;+abstract toCSV() : String&lt;/i&gt;" style="text;strokeColor=none;fillColor=none;align=left;verticalAlign=middle;spacingLeft=4;spacingRight=4;overflow=hidden;points=[[0,0.5],[1,0.5]];portConstraint=eastwest;rotatable=0;whiteSpace=wrap;html=1;" parent="f17wZOm8WCS2GQfg1A_k-85" vertex="1">
          <mxGeometry y="60" width="460" height="30" as="geometry" />
        </mxCell>
        <mxCell id="f17wZOm8WCS2GQfg1A_k-90" value="&amp;lt;data class&amp;gt;&lt;br&gt;&lt;b&gt;Movie&lt;/b&gt;" style="swimlane;fontStyle=0;childLayout=stackLayout;horizontal=1;startSize=40;horizontalStack=0;resizeParent=1;resizeParentMax=0;resizeLast=0;collapsible=1;marginBottom=0;whiteSpace=wrap;html=1;" parent="WIyWlLk6GJQsqaUBKTNV-1" vertex="1">
          <mxGeometry x="1180" y="672" width="160" height="168" as="geometry" />
        </mxCell>
        <mxCell id="f17wZOm8WCS2GQfg1A_k-91" value="+name : String" style="text;strokeColor=none;fillColor=none;align=left;verticalAlign=middle;spacingLeft=4;spacingRight=4;overflow=hidden;points=[[0,0.5],[1,0.5]];portConstraint=eastwest;rotatable=0;whiteSpace=wrap;html=1;" parent="f17wZOm8WCS2GQfg1A_k-90" vertex="1">
          <mxGeometry y="40" width="160" height="30" as="geometry" />
        </mxCell>
        <mxCell id="f17wZOm8WCS2GQfg1A_k-98" value="+year : Int" style="text;strokeColor=none;fillColor=none;align=left;verticalAlign=middle;spacingLeft=4;spacingRight=4;overflow=hidden;points=[[0,0.5],[1,0.5]];portConstraint=eastwest;rotatable=0;whiteSpace=wrap;html=1;" parent="f17wZOm8WCS2GQfg1A_k-90" vertex="1">
          <mxGeometry y="70" width="160" height="30" as="geometry" />
        </mxCell>
        <mxCell id="f17wZOm8WCS2GQfg1A_k-97" value="" style="line;html=1;strokeWidth=1;align=left;verticalAlign=middle;spacingTop=-1;spacingLeft=3;spacingRight=3;rotatable=0;labelPosition=right;points=[];portConstraint=eastwest;" parent="f17wZOm8WCS2GQfg1A_k-90" vertex="1">
          <mxGeometry y="100" width="160" height="8" as="geometry" />
        </mxCell>
        <mxCell id="f17wZOm8WCS2GQfg1A_k-92" value="+override toString() : String" style="text;strokeColor=none;fillColor=none;align=left;verticalAlign=middle;spacingLeft=4;spacingRight=4;overflow=hidden;points=[[0,0.5],[1,0.5]];portConstraint=eastwest;rotatable=0;whiteSpace=wrap;html=1;" parent="f17wZOm8WCS2GQfg1A_k-90" vertex="1">
          <mxGeometry y="108" width="160" height="30" as="geometry" />
        </mxCell>
        <mxCell id="f17wZOm8WCS2GQfg1A_k-93" value="+override toCSV() : String" style="text;strokeColor=none;fillColor=none;align=left;verticalAlign=middle;spacingLeft=4;spacingRight=4;overflow=hidden;points=[[0,0.5],[1,0.5]];portConstraint=eastwest;rotatable=0;whiteSpace=wrap;html=1;" parent="f17wZOm8WCS2GQfg1A_k-90" vertex="1">
          <mxGeometry y="138" width="160" height="30" as="geometry" />
        </mxCell>
        <mxCell id="f17wZOm8WCS2GQfg1A_k-99" style="edgeStyle=orthogonalEdgeStyle;rounded=0;orthogonalLoop=1;jettySize=auto;html=1;exitX=1;exitY=0.5;exitDx=0;exitDy=0;entryX=0.391;entryY=1.2;entryDx=0;entryDy=0;entryPerimeter=0;endArrow=block;endFill=0;endSize=24;" parent="WIyWlLk6GJQsqaUBKTNV-1" source="f17wZOm8WCS2GQfg1A_k-98" edge="1">
          <mxGeometry relative="1" as="geometry">
            <mxPoint x="1290" y="634" as="sourcePoint" />
            <mxPoint x="1479.8600000000001" y="564" as="targetPoint" />
            <Array as="points">
              <mxPoint x="1340" y="730" />
              <mxPoint x="1480" y="730" />
            </Array>
          </mxGeometry>
        </mxCell>
        <mxCell id="f17wZOm8WCS2GQfg1A_k-105" style="edgeStyle=orthogonalEdgeStyle;rounded=0;orthogonalLoop=1;jettySize=auto;html=1;exitX=0.5;exitY=0;exitDx=0;exitDy=0;endArrow=none;endFill=0;" parent="WIyWlLk6GJQsqaUBKTNV-1" source="f17wZOm8WCS2GQfg1A_k-101" edge="1">
          <mxGeometry relative="1" as="geometry">
            <mxPoint x="1480" y="600" as="targetPoint" />
            <Array as="points">
              <mxPoint x="1830" y="761" />
              <mxPoint x="1720" y="760" />
              <mxPoint x="1720" y="730" />
              <mxPoint x="1480" y="730" />
            </Array>
          </mxGeometry>
        </mxCell>
        <mxCell id="f17wZOm8WCS2GQfg1A_k-101" value="&amp;lt;data class&amp;gt;&lt;br&gt;&lt;b&gt;MovieShow&lt;/b&gt;" style="swimlane;fontStyle=0;childLayout=stackLayout;horizontal=1;startSize=40;horizontalStack=0;resizeParent=1;resizeParentMax=0;resizeLast=0;collapsible=1;marginBottom=0;whiteSpace=wrap;html=1;" parent="WIyWlLk6GJQsqaUBKTNV-1" vertex="1">
          <mxGeometry x="1550" y="761" width="340" height="408" as="geometry" />
        </mxCell>
        <mxCell id="f17wZOm8WCS2GQfg1A_k-102" value="+movie : Movie" style="text;strokeColor=none;fillColor=none;align=left;verticalAlign=middle;spacingLeft=4;spacingRight=4;overflow=hidden;points=[[0,0.5],[1,0.5]];portConstraint=eastwest;rotatable=0;whiteSpace=wrap;html=1;" parent="f17wZOm8WCS2GQfg1A_k-101" vertex="1">
          <mxGeometry y="40" width="340" height="30" as="geometry" />
        </mxCell>
        <mxCell id="f17wZOm8WCS2GQfg1A_k-114" value="+date : LocalDate" style="text;strokeColor=none;fillColor=none;align=left;verticalAlign=middle;spacingLeft=4;spacingRight=4;overflow=hidden;points=[[0,0.5],[1,0.5]];portConstraint=eastwest;rotatable=0;whiteSpace=wrap;html=1;" parent="f17wZOm8WCS2GQfg1A_k-101" vertex="1">
          <mxGeometry y="70" width="340" height="30" as="geometry" />
        </mxCell>
        <mxCell id="f17wZOm8WCS2GQfg1A_k-115" value="+startTime : LocalTime" style="text;strokeColor=none;fillColor=none;align=left;verticalAlign=middle;spacingLeft=4;spacingRight=4;overflow=hidden;points=[[0,0.5],[1,0.5]];portConstraint=eastwest;rotatable=0;whiteSpace=wrap;html=1;" parent="f17wZOm8WCS2GQfg1A_k-101" vertex="1">
          <mxGeometry y="100" width="340" height="30" as="geometry" />
        </mxCell>
        <mxCell id="f17wZOm8WCS2GQfg1A_k-116" value="-_seats : MutableList&amp;lt;Boolean&amp;gt;" style="text;strokeColor=none;fillColor=none;align=left;verticalAlign=middle;spacingLeft=4;spacingRight=4;overflow=hidden;points=[[0,0.5],[1,0.5]];portConstraint=eastwest;rotatable=0;whiteSpace=wrap;html=1;" parent="f17wZOm8WCS2GQfg1A_k-101" vertex="1">
          <mxGeometry y="130" width="340" height="30" as="geometry" />
        </mxCell>
        <mxCell id="f17wZOm8WCS2GQfg1A_k-118" value="+seats : List&amp;lt;Boolean&amp;gt;" style="text;strokeColor=none;fillColor=none;align=left;verticalAlign=middle;spacingLeft=4;spacingRight=4;overflow=hidden;points=[[0,0.5],[1,0.5]];portConstraint=eastwest;rotatable=0;whiteSpace=wrap;html=1;" parent="f17wZOm8WCS2GQfg1A_k-101" vertex="1">
          <mxGeometry y="160" width="340" height="30" as="geometry" />
        </mxCell>
        <mxCell id="f17wZOm8WCS2GQfg1A_k-119" value="+startDateTime : LocalDateTime" style="text;strokeColor=none;fillColor=none;align=left;verticalAlign=middle;spacingLeft=4;spacingRight=4;overflow=hidden;points=[[0,0.5],[1,0.5]];portConstraint=eastwest;rotatable=0;whiteSpace=wrap;html=1;" parent="f17wZOm8WCS2GQfg1A_k-101" vertex="1">
          <mxGeometry y="190" width="340" height="30" as="geometry" />
        </mxCell>
        <mxCell id="f17wZOm8WCS2GQfg1A_k-120" value="+static dateFormatter : DateTimeFormatter" style="text;strokeColor=none;fillColor=none;align=left;verticalAlign=middle;spacingLeft=4;spacingRight=4;overflow=hidden;points=[[0,0.5],[1,0.5]];portConstraint=eastwest;rotatable=0;whiteSpace=wrap;html=1;" parent="f17wZOm8WCS2GQfg1A_k-101" vertex="1">
          <mxGeometry y="220" width="340" height="30" as="geometry" />
        </mxCell>
        <mxCell id="f17wZOm8WCS2GQfg1A_k-122" value="+static timeFormatter : DateTimeFormatter" style="text;strokeColor=none;fillColor=none;align=left;verticalAlign=middle;spacingLeft=4;spacingRight=4;overflow=hidden;points=[[0,0.5],[1,0.5]];portConstraint=eastwest;rotatable=0;whiteSpace=wrap;html=1;" parent="f17wZOm8WCS2GQfg1A_k-101" vertex="1">
          <mxGeometry y="250" width="340" height="30" as="geometry" />
        </mxCell>
        <mxCell id="f17wZOm8WCS2GQfg1A_k-108" value="" style="line;html=1;strokeWidth=1;align=left;verticalAlign=middle;spacingTop=-1;spacingLeft=3;spacingRight=3;rotatable=0;labelPosition=right;points=[];portConstraint=eastwest;" parent="f17wZOm8WCS2GQfg1A_k-101" vertex="1">
          <mxGeometry y="280" width="340" height="8" as="geometry" />
        </mxCell>
        <mxCell id="f17wZOm8WCS2GQfg1A_k-103" value="+override toCSV() : String" style="text;strokeColor=none;fillColor=none;align=left;verticalAlign=middle;spacingLeft=4;spacingRight=4;overflow=hidden;points=[[0,0.5],[1,0.5]];portConstraint=eastwest;rotatable=0;whiteSpace=wrap;html=1;" parent="f17wZOm8WCS2GQfg1A_k-101" vertex="1">
          <mxGeometry y="288" width="340" height="30" as="geometry" />
        </mxCell>
        <mxCell id="f17wZOm8WCS2GQfg1A_k-104" value="+override toString() : String" style="text;strokeColor=none;fillColor=none;align=left;verticalAlign=middle;spacingLeft=4;spacingRight=4;overflow=hidden;points=[[0,0.5],[1,0.5]];portConstraint=eastwest;rotatable=0;whiteSpace=wrap;html=1;" parent="f17wZOm8WCS2GQfg1A_k-101" vertex="1">
          <mxGeometry y="318" width="340" height="30" as="geometry" />
        </mxCell>
        <mxCell id="f17wZOm8WCS2GQfg1A_k-123" value="+buyTicketAt(Index : Int)" style="text;strokeColor=none;fillColor=none;align=left;verticalAlign=middle;spacingLeft=4;spacingRight=4;overflow=hidden;points=[[0,0.5],[1,0.5]];portConstraint=eastwest;rotatable=0;whiteSpace=wrap;html=1;" parent="f17wZOm8WCS2GQfg1A_k-101" vertex="1">
          <mxGeometry y="348" width="340" height="30" as="geometry" />
        </mxCell>
        <mxCell id="f17wZOm8WCS2GQfg1A_k-124" value="+refundTicketAt(Index : Int)" style="text;strokeColor=none;fillColor=none;align=left;verticalAlign=middle;spacingLeft=4;spacingRight=4;overflow=hidden;points=[[0,0.5],[1,0.5]];portConstraint=eastwest;rotatable=0;whiteSpace=wrap;html=1;" parent="f17wZOm8WCS2GQfg1A_k-101" vertex="1">
          <mxGeometry y="378" width="340" height="30" as="geometry" />
        </mxCell>
        <mxCell id="f17wZOm8WCS2GQfg1A_k-106" style="edgeStyle=orthogonalEdgeStyle;rounded=0;orthogonalLoop=1;jettySize=auto;html=1;exitX=0;exitY=0.414;exitDx=0;exitDy=0;endArrow=none;endFill=0;startArrow=diamondThin;startFill=0;startSize=36;entryX=0.999;entryY=0.135;entryDx=0;entryDy=0;entryPerimeter=0;exitPerimeter=0;" parent="WIyWlLk6GJQsqaUBKTNV-1" source="f17wZOm8WCS2GQfg1A_k-102" target="f17wZOm8WCS2GQfg1A_k-93" edge="1">
          <mxGeometry relative="1" as="geometry">
            <mxPoint x="1380" y="820" as="targetPoint" />
            <Array as="points" />
          </mxGeometry>
        </mxCell>
        <mxCell id="f17wZOm8WCS2GQfg1A_k-125" style="edgeStyle=orthogonalEdgeStyle;rounded=0;orthogonalLoop=1;jettySize=auto;html=1;exitX=1;exitY=0.652;exitDx=0;exitDy=0;endArrow=block;endFill=1;endSize=21;exitPerimeter=0;" parent="WIyWlLk6GJQsqaUBKTNV-1" source="f17wZOm8WCS2GQfg1A_k-6" edge="1">
          <mxGeometry relative="1" as="geometry">
            <mxPoint x="1270" y="530" as="targetPoint" />
            <Array as="points">
              <mxPoint x="980" y="530" />
            </Array>
          </mxGeometry>
        </mxCell>
        <mxCell id="f17wZOm8WCS2GQfg1A_k-126" style="edgeStyle=orthogonalEdgeStyle;rounded=0;orthogonalLoop=1;jettySize=auto;html=1;exitX=1;exitY=0.5;exitDx=0;exitDy=0;endArrow=block;endFill=1;endSize=22;entryX=0;entryY=0.5;entryDx=0;entryDy=0;" parent="WIyWlLk6GJQsqaUBKTNV-1" source="f17wZOm8WCS2GQfg1A_k-50" target="f17wZOm8WCS2GQfg1A_k-115" edge="1">
          <mxGeometry relative="1" as="geometry">
            <mxPoint x="1550" y="1070" as="targetPoint" />
            <Array as="points">
              <mxPoint x="1260" y="1270" />
              <mxPoint x="1320" y="1270" />
              <mxPoint x="1320" y="876" />
            </Array>
          </mxGeometry>
        </mxCell>
        <mxCell id="f17wZOm8WCS2GQfg1A_k-128" value="read, write and find data" style="text;html=1;strokeColor=none;fillColor=none;align=center;verticalAlign=middle;whiteSpace=wrap;rounded=0;" parent="WIyWlLk6GJQsqaUBKTNV-1" vertex="1">
          <mxGeometry x="710" y="1010" width="180" height="30" as="geometry" />
        </mxCell>
        <mxCell id="f17wZOm8WCS2GQfg1A_k-129" value="read, write and find data" style="text;html=1;strokeColor=none;fillColor=none;align=center;verticalAlign=middle;whiteSpace=wrap;rounded=0;" parent="WIyWlLk6GJQsqaUBKTNV-1" vertex="1">
          <mxGeometry x="1050" y="550" width="180" height="30" as="geometry" />
        </mxCell>
        <mxCell id="f17wZOm8WCS2GQfg1A_k-130" value="read, write and find data" style="text;html=1;strokeColor=none;fillColor=none;align=center;verticalAlign=middle;whiteSpace=wrap;rounded=0;" parent="WIyWlLk6GJQsqaUBKTNV-1" vertex="1">
          <mxGeometry x="1330" y="880" width="180" height="30" as="geometry" />
        </mxCell>
        <mxCell id="0LXpmrPCH1U7zpxkhlg8-0" value="&lt;b&gt;MovieShowService&lt;/b&gt;" style="swimlane;fontStyle=0;childLayout=stackLayout;horizontal=1;startSize=30;horizontalStack=0;resizeParent=1;resizeParentMax=0;resizeLast=0;collapsible=1;marginBottom=0;whiteSpace=wrap;html=1;" vertex="1" parent="WIyWlLk6GJQsqaUBKTNV-1">
          <mxGeometry x="-660" y="550" width="350" height="248" as="geometry" />
        </mxCell>
        <mxCell id="0LXpmrPCH1U7zpxkhlg8-16" style="edgeStyle=orthogonalEdgeStyle;rounded=0;orthogonalLoop=1;jettySize=auto;html=1;exitX=1.006;exitY=0.281;exitDx=0;exitDy=0;endArrow=none;endFill=0;startArrow=diamondThin;startFill=1;endSize=18;startSize=30;exitPerimeter=0;" edge="1" parent="0LXpmrPCH1U7zpxkhlg8-0" source="0LXpmrPCH1U7zpxkhlg8-1">
          <mxGeometry relative="1" as="geometry">
            <mxPoint x="1210" y="-350" as="targetPoint" />
            <Array as="points">
              <mxPoint x="410" y="38" />
              <mxPoint x="410" y="-50" />
              <mxPoint x="1210" y="-50" />
              <mxPoint x="1210" y="-360" />
            </Array>
          </mxGeometry>
        </mxCell>
        <mxCell id="0LXpmrPCH1U7zpxkhlg8-1" value="-static movieDAO : MovieDAO" style="text;strokeColor=none;fillColor=none;align=left;verticalAlign=middle;spacingLeft=4;spacingRight=4;overflow=hidden;points=[[0,0.5],[1,0.5]];portConstraint=eastwest;rotatable=0;whiteSpace=wrap;html=1;" vertex="1" parent="0LXpmrPCH1U7zpxkhlg8-0">
          <mxGeometry y="30" width="350" height="30" as="geometry" />
        </mxCell>
        <mxCell id="0LXpmrPCH1U7zpxkhlg8-2" value="-static movieShowDAO : MovieShowDAO" style="text;strokeColor=none;fillColor=none;align=left;verticalAlign=middle;spacingLeft=4;spacingRight=4;overflow=hidden;points=[[0,0.5],[1,0.5]];portConstraint=eastwest;rotatable=0;whiteSpace=wrap;html=1;" vertex="1" parent="0LXpmrPCH1U7zpxkhlg8-0">
          <mxGeometry y="60" width="350" height="30" as="geometry" />
        </mxCell>
        <mxCell id="0LXpmrPCH1U7zpxkhlg8-4" value="" style="line;html=1;strokeWidth=1;align=left;verticalAlign=middle;spacingTop=-1;spacingLeft=3;spacingRight=3;rotatable=0;labelPosition=right;points=[];portConstraint=eastwest;" vertex="1" parent="0LXpmrPCH1U7zpxkhlg8-0">
          <mxGeometry y="90" width="350" height="8" as="geometry" />
        </mxCell>
        <mxCell id="0LXpmrPCH1U7zpxkhlg8-5" value="-readEnter() : Unit" style="text;strokeColor=none;fillColor=none;align=left;verticalAlign=middle;spacingLeft=4;spacingRight=4;overflow=hidden;points=[[0,0.5],[1,0.5]];portConstraint=eastwest;rotatable=0;whiteSpace=wrap;html=1;" vertex="1" parent="0LXpmrPCH1U7zpxkhlg8-0">
          <mxGeometry y="98" width="350" height="30" as="geometry" />
        </mxCell>
        <mxCell id="0LXpmrPCH1U7zpxkhlg8-8" value="-sellTicket() : Unit" style="text;strokeColor=none;fillColor=none;align=left;verticalAlign=middle;spacingLeft=4;spacingRight=4;overflow=hidden;points=[[0,0.5],[1,0.5]];portConstraint=eastwest;rotatable=0;whiteSpace=wrap;html=1;" vertex="1" parent="0LXpmrPCH1U7zpxkhlg8-0">
          <mxGeometry y="128" width="350" height="30" as="geometry" />
        </mxCell>
        <mxCell id="0LXpmrPCH1U7zpxkhlg8-9" value="-refundTicket() : Unit" style="text;strokeColor=none;fillColor=none;align=left;verticalAlign=middle;spacingLeft=4;spacingRight=4;overflow=hidden;points=[[0,0.5],[1,0.5]];portConstraint=eastwest;rotatable=0;whiteSpace=wrap;html=1;" vertex="1" parent="0LXpmrPCH1U7zpxkhlg8-0">
          <mxGeometry y="158" width="350" height="30" as="geometry" />
        </mxCell>
        <mxCell id="0LXpmrPCH1U7zpxkhlg8-13" value="-addMovieShow() : Unit" style="text;strokeColor=none;fillColor=none;align=left;verticalAlign=middle;spacingLeft=4;spacingRight=4;overflow=hidden;points=[[0,0.5],[1,0.5]];portConstraint=eastwest;rotatable=0;whiteSpace=wrap;html=1;" vertex="1" parent="0LXpmrPCH1U7zpxkhlg8-0">
          <mxGeometry y="188" width="350" height="30" as="geometry" />
        </mxCell>
        <mxCell id="0LXpmrPCH1U7zpxkhlg8-14" value="-removeMovieShow() : Unit" style="text;strokeColor=none;fillColor=none;align=left;verticalAlign=middle;spacingLeft=4;spacingRight=4;overflow=hidden;points=[[0,0.5],[1,0.5]];portConstraint=eastwest;rotatable=0;whiteSpace=wrap;html=1;" vertex="1" parent="0LXpmrPCH1U7zpxkhlg8-0">
          <mxGeometry y="218" width="350" height="30" as="geometry" />
        </mxCell>
        <mxCell id="f17wZOm8WCS2GQfg1A_k-127" style="edgeStyle=orthogonalEdgeStyle;rounded=0;orthogonalLoop=1;jettySize=auto;html=1;exitX=1;exitY=1.134;exitDx=0;exitDy=0;entryX=0.479;entryY=1.138;entryDx=0;entryDy=0;entryPerimeter=0;exitPerimeter=0;endArrow=block;endFill=1;endSize=18;" parent="WIyWlLk6GJQsqaUBKTNV-1" source="f17wZOm8WCS2GQfg1A_k-37" edge="1" target="f17wZOm8WCS2GQfg1A_k-93">
          <mxGeometry relative="1" as="geometry">
            <mxPoint x="590" y="1026.9099999999999" as="sourcePoint" />
            <mxPoint x="1287.5200000000002" y="919.09" as="targetPoint" />
            <Array as="points">
              <mxPoint x="1257" y="1050" />
            </Array>
          </mxGeometry>
        </mxCell>
        <mxCell id="0LXpmrPCH1U7zpxkhlg8-19" style="edgeStyle=orthogonalEdgeStyle;rounded=0;orthogonalLoop=1;jettySize=auto;html=1;entryX=0.25;entryY=0;entryDx=0;entryDy=0;endArrow=none;endFill=0;startArrow=diamondThin;startFill=1;endSize=18;startSize=30;exitX=1.004;exitY=0.804;exitDx=0;exitDy=0;exitPerimeter=0;" edge="1" parent="WIyWlLk6GJQsqaUBKTNV-1" source="0LXpmrPCH1U7zpxkhlg8-2" target="f17wZOm8WCS2GQfg1A_k-46">
          <mxGeometry relative="1" as="geometry">
            <mxPoint x="-310" y="655" as="sourcePoint" />
            <Array as="points">
              <mxPoint x="-270" y="634" />
              <mxPoint x="-270" y="1130" />
              <mxPoint x="1015" y="1130" />
            </Array>
          </mxGeometry>
        </mxCell>
        <mxCell id="0LXpmrPCH1U7zpxkhlg8-21" style="edgeStyle=orthogonalEdgeStyle;rounded=0;orthogonalLoop=1;jettySize=auto;html=1;exitX=0.999;exitY=0.011;exitDx=0;exitDy=0;endArrow=none;endFill=0;startArrow=diamondThin;startFill=1;endSize=18;startSize=30;entryX=0.25;entryY=0;entryDx=0;entryDy=0;exitPerimeter=0;" edge="1" parent="WIyWlLk6GJQsqaUBKTNV-1" source="0LXpmrPCH1U7zpxkhlg8-2" target="f17wZOm8WCS2GQfg1A_k-34">
          <mxGeometry relative="1" as="geometry">
            <mxPoint x="330" y="870" as="targetPoint" />
            <Array as="points">
              <mxPoint x="-210" y="610" />
              <mxPoint x="-210" y="930" />
              <mxPoint x="185" y="930" />
            </Array>
          </mxGeometry>
        </mxCell>
      </root>
    </mxGraphModel>
  </diagram>
</mxfile>
